<svg width="250" height="250" viewBox="0 0 250 250" fill="none" xmlns="http://www.w3.org/2000/svg">
<g clip-path="url(#clip0_462_95)">
<path d="M38.8737 69.7513C41.1749 69.7513 43.0404 67.8858 43.0404 65.5846C43.0404 63.2834 41.1749 61.418 38.8737 61.418C36.5725 61.418 34.707 63.2834 34.707 65.5846C34.707 67.8858 36.5725 69.7513 38.8737 69.7513Z" fill="#FFDC84" fill-opacity="0.8"/>
<path d="M66.6667 69.7513C68.9679 69.7513 70.8333 67.8858 70.8333 65.5846C70.8333 63.2834 68.9679 61.418 66.6667 61.418C64.3655 61.418 62.5 63.2834 62.5 65.5846C62.5 67.8858 64.3655 69.7513 66.6667 69.7513Z" fill="#FFDC84" fill-opacity="0.8"/>
<path d="M52.7917 69.7513C55.0929 69.7513 56.9583 67.8858 56.9583 65.5846C56.9583 63.2834 55.0929 61.418 52.7917 61.418C50.4905 61.418 48.625 63.2834 48.625 65.5846C48.625 67.8858 50.4905 69.7513 52.7917 69.7513Z" fill="#FFDC84" fill-opacity="0.8"/>
<path d="M83.3314 126.042L95.8314 113.542C96.616 112.758 97.0568 111.694 97.0568 110.584C97.0568 109.475 96.616 108.41 95.8314 107.626C95.0468 106.841 93.9827 106.4 92.8731 106.4C91.7635 106.4 90.6994 106.841 89.9148 107.626L74.4148 123.167C73.6387 123.948 73.2031 125.004 73.2031 126.105C73.2031 127.206 73.6387 128.262 74.4148 129.042L89.9148 144.584C90.3021 144.975 90.7629 145.285 91.2707 145.496C91.7784 145.708 92.323 145.817 92.8731 145.817C93.4231 145.817 93.9677 145.708 94.4755 145.496C94.9832 145.285 95.4441 144.975 95.8314 144.584C96.6075 143.803 97.0431 142.747 97.0431 141.647C97.0431 140.546 96.6075 139.49 95.8314 138.709L83.3314 126.042Z" fill="#FFDC84" fill-opacity="0.8"/>
<path d="M143.005 144.5C143.786 145.276 144.842 145.711 145.942 145.711C147.043 145.711 148.099 145.276 148.88 144.5L164.422 129.166C165.198 128.386 165.633 127.33 165.633 126.229C165.633 125.128 165.198 124.072 164.422 123.291L148.88 107.75C148.095 106.971 147.033 106.535 145.928 106.539C144.822 106.543 143.763 106.986 142.984 107.771C142.205 108.555 141.77 109.617 141.773 110.723C141.777 111.828 142.22 112.887 143.005 113.666L155.505 126.166L143.005 138.666C142.241 139.445 141.814 140.492 141.814 141.583C141.814 142.674 142.241 143.721 143.005 144.5Z" fill="#FFDC84" fill-opacity="0.8"/>
<path d="M129.165 108.96C128.69 108.684 128.164 108.506 127.619 108.434C127.075 108.362 126.521 108.399 125.99 108.543C125.46 108.686 124.963 108.933 124.528 109.269C124.093 109.605 123.729 110.024 123.457 110.501L108.082 137.501C107.781 137.976 107.578 138.506 107.487 139.06C107.396 139.615 107.418 140.182 107.551 140.728C107.685 141.274 107.928 141.787 108.265 142.237C108.602 142.686 109.027 143.063 109.513 143.344C110 143.625 110.538 143.805 111.096 143.873C111.654 143.941 112.22 143.895 112.759 143.738C113.299 143.582 113.801 143.318 114.236 142.962C114.671 142.606 115.03 142.166 115.29 141.668L130.832 114.793C131.123 114.305 131.311 113.762 131.384 113.199C131.457 112.635 131.414 112.063 131.258 111.516C131.102 110.97 130.836 110.461 130.476 110.022C130.116 109.582 129.67 109.221 129.165 108.96Z" fill="#FFDC84" fill-opacity="0.8"/>
<path d="M232.751 166.667C232.505 166.665 232.266 166.588 232.065 166.447C231.864 166.305 231.71 166.106 231.626 165.875C229.968 161.514 227.618 157.448 224.667 153.834C224.528 153.632 224.453 153.392 224.453 153.146C224.453 152.901 224.528 152.661 224.667 152.459C225.936 150.259 226.281 147.646 225.624 145.193C224.968 142.74 223.365 140.647 221.167 139.375L218.042 137.5V61.417C218.042 58.1018 216.725 54.9224 214.381 52.5782C212.037 50.234 208.858 48.917 205.542 48.917H33.334C30.0188 48.917 26.8394 50.234 24.4952 52.5782C22.1509 54.9224 20.834 58.1018 20.834 61.417V167C20.845 169.572 21.8713 172.035 23.6896 173.853C25.5079 175.671 27.9709 176.698 30.5423 176.709H87.5007L83.334 192.125H77.7923C73.734 192.128 69.7951 193.499 66.6121 196.017C63.4291 198.534 61.1879 202.052 60.2507 206H50.0007C48.8956 206 47.8358 206.439 47.0544 207.221C46.273 208.002 45.834 209.062 45.834 210.167C45.834 211.272 46.273 212.332 47.0544 213.113C47.8358 213.895 48.8956 214.334 50.0007 214.334H156.126C156.055 215.329 156.154 216.329 156.417 217.292C156.73 218.514 157.286 219.661 158.052 220.663C158.818 221.666 159.778 222.503 160.876 223.125L169.667 228.209C170.89 228.835 171.963 229.241 173.212 229.402C174.46 229.563 175.728 229.477 176.943 229.148C178.158 228.819 179.296 228.254 180.292 227.485C181.289 226.716 182.124 225.759 182.751 224.667C182.886 224.454 183.08 224.286 183.309 224.182C183.539 224.079 183.794 224.044 184.042 224.084C188.619 224.875 193.299 224.875 197.876 224.084C198.129 224.043 198.389 224.081 198.62 224.192C198.851 224.304 199.042 224.484 199.167 224.709C200.017 226.163 201.234 227.367 202.697 228.201C204.16 229.035 205.817 229.469 207.501 229.459C209.181 229.475 210.834 229.043 212.292 228.209L221.084 223.125C222.176 222.496 223.131 221.656 223.897 220.655C224.662 219.653 225.221 218.511 225.542 217.292C225.874 216.081 225.96 214.815 225.796 213.57C225.631 212.325 225.219 211.125 224.584 210.042C224.441 209.834 224.364 209.587 224.364 209.334C224.364 209.081 224.441 208.834 224.584 208.625C227.526 205.02 229.875 200.969 231.542 196.625C231.622 196.391 231.774 196.188 231.976 196.046C232.178 195.904 232.42 195.829 232.667 195.834C235.206 195.823 237.637 194.81 239.432 193.015C241.227 191.22 242.24 188.789 242.251 186.25V176.084C242.207 173.585 241.19 171.203 239.415 169.444C237.641 167.685 235.249 166.688 232.751 166.667ZM29.1673 61.417C29.1673 60.3119 29.6063 59.2521 30.3877 58.4707C31.1691 57.6893 32.2289 57.2503 33.334 57.2503H205.542C206.647 57.2503 207.707 57.6893 208.489 58.4707C209.27 59.2521 209.709 60.3119 209.709 61.417V73.917H29.1673V61.417ZM30.5423 168.375C30.3618 168.375 30.183 168.34 30.0161 168.271C29.8493 168.202 29.6977 168.1 29.57 167.973C29.4424 167.845 29.3411 167.693 29.272 167.527C29.2029 167.36 29.1673 167.181 29.1673 167V82.2503H209.709V133.334C207.737 132.81 205.65 132.932 203.752 133.682C201.855 134.432 200.248 135.77 199.167 137.5C199.038 137.706 198.849 137.867 198.626 137.964C198.403 138.061 198.156 138.088 197.917 138.042C193.337 137.292 188.665 137.292 184.084 138.042C183.845 138.094 183.596 138.07 183.372 137.973C183.147 137.875 182.959 137.71 182.834 137.5C182.208 136.408 181.372 135.45 180.375 134.683C179.377 133.915 178.237 133.352 177.021 133.027C175.805 132.701 174.536 132.62 173.289 132.787C172.041 132.954 170.838 133.366 169.751 134L160.959 139.084C159.864 139.699 158.905 140.53 158.139 141.525C157.373 142.52 156.816 143.66 156.501 144.875C155.834 147.332 156.164 149.952 157.417 152.167C157.569 152.364 157.652 152.606 157.652 152.855C157.652 153.103 157.569 153.345 157.417 153.542C154.466 157.156 152.117 161.222 150.459 165.584C150.374 165.814 150.221 166.014 150.02 166.155C149.819 166.297 149.58 166.373 149.334 166.375C147.293 166.378 145.307 167.035 143.667 168.25L30.5423 168.375ZM141.667 192.125H91.6673L95.834 176.709H139.584V186.25C139.611 188.385 140.343 190.451 141.667 192.125ZM77.834 200.459H152.001C152.953 202.38 154.039 204.231 155.251 206H69.0423C69.829 204.345 71.0682 202.946 72.6166 201.965C74.165 200.985 75.9595 200.462 77.7923 200.459H77.834ZM234.001 186.25C234.001 186.582 233.869 186.9 233.635 187.134C233.4 187.369 233.082 187.5 232.751 187.5C230.81 187.505 228.916 188.097 227.317 189.197C225.718 190.298 224.49 191.856 223.792 193.667C222.46 197.18 220.576 200.457 218.209 203.375C216.989 204.883 216.252 206.724 216.096 208.657C215.94 210.59 216.371 212.525 217.334 214.209C217.401 214.352 217.436 214.509 217.436 214.667C217.436 214.825 217.401 214.982 217.334 215.125C217.298 215.291 217.227 215.447 217.127 215.583C217.026 215.72 216.898 215.833 216.751 215.917L208.084 220.834C207.939 220.914 207.78 220.965 207.615 220.984C207.451 221.002 207.284 220.987 207.125 220.941C206.966 220.894 206.818 220.817 206.69 220.713C206.561 220.608 206.454 220.48 206.376 220.334C205.391 218.655 203.919 217.314 202.156 216.488C200.393 215.662 198.421 215.39 196.501 215.709C192.833 216.334 189.085 216.334 185.417 215.709C183.492 215.394 181.517 215.672 179.754 216.506C177.99 217.339 176.522 218.689 175.542 220.375C175.369 220.655 175.096 220.858 174.779 220.943C174.462 221.028 174.124 220.989 173.834 220.834L165.042 215.75C164.895 215.667 164.767 215.553 164.666 215.417C164.566 215.28 164.495 215.124 164.459 214.959C164.392 214.815 164.357 214.659 164.357 214.5C164.357 214.342 164.392 214.185 164.459 214.042C165.41 212.355 165.835 210.422 165.68 208.491C165.524 206.561 164.794 204.721 163.584 203.209C161.196 200.298 159.296 197.019 157.959 193.5C157.26 191.737 156.049 190.223 154.482 189.153C152.915 188.084 151.064 187.508 149.167 187.5C148.836 187.5 148.518 187.369 148.283 187.134C148.049 186.9 147.917 186.582 147.917 186.25V176.084C147.912 175.918 147.94 175.753 148.001 175.599C148.061 175.444 148.153 175.304 148.27 175.187C148.388 175.07 148.528 174.978 148.682 174.917C148.836 174.856 149.002 174.828 149.167 174.834C151.102 174.826 152.99 174.233 154.581 173.132C156.173 172.032 157.394 170.475 158.084 168.667C159.412 165.143 161.312 161.863 163.709 158.959C164.919 157.446 165.649 155.606 165.805 153.676C165.96 151.745 165.535 149.812 164.584 148.125C164.516 147.975 164.481 147.811 164.481 147.646C164.481 147.481 164.516 147.318 164.584 147.167C164.618 147.006 164.688 146.855 164.789 146.725C164.89 146.595 165.019 146.489 165.167 146.417L173.959 141.334C174.163 141.277 174.38 141.277 174.584 141.334C174.793 141.336 174.997 141.391 175.179 141.493C175.361 141.595 175.514 141.741 175.626 141.917C176.609 143.6 178.079 144.946 179.841 145.779C181.603 146.611 183.576 146.892 185.501 146.584C189.169 145.959 192.916 145.959 196.584 146.584C198.521 146.845 200.493 146.516 202.24 145.639C203.987 144.761 205.428 143.377 206.376 141.667C206.457 141.53 206.565 141.41 206.693 141.314C206.821 141.219 206.967 141.15 207.122 141.111C207.277 141.072 207.438 141.064 207.596 141.088C207.754 141.112 207.906 141.167 208.042 141.25L216.834 146.334C216.982 146.406 217.111 146.511 217.212 146.641C217.313 146.771 217.383 146.923 217.417 147.084C217.485 147.234 217.52 147.398 217.52 147.563C217.52 147.728 217.485 147.891 217.417 148.042C216.458 149.719 216.029 151.647 216.185 153.573C216.341 155.499 217.076 157.333 218.292 158.834C220.66 161.766 222.545 165.058 223.876 168.584C224.532 170.425 225.732 172.024 227.317 173.17C228.901 174.316 230.796 174.954 232.751 175C232.916 174.995 233.082 175.023 233.236 175.084C233.39 175.144 233.53 175.236 233.648 175.353C233.765 175.471 233.857 175.611 233.917 175.765C233.978 175.919 234.006 176.085 234.001 176.25V186.25Z" fill="#FFDC84" fill-opacity="0.8"/>
<path d="M190.954 162.252C187.212 162.252 183.555 163.361 180.444 165.44C177.333 167.519 174.909 170.473 173.477 173.93C172.045 177.386 171.671 181.19 172.401 184.859C173.131 188.529 174.932 191.899 177.578 194.545C180.223 197.19 183.594 198.992 187.263 199.722C190.933 200.452 194.736 200.077 198.193 198.645C201.649 197.214 204.604 194.789 206.682 191.678C208.761 188.567 209.87 184.91 209.87 181.169C209.87 176.152 207.877 171.34 204.33 167.793C200.782 164.245 195.971 162.252 190.954 162.252ZM190.954 191.752C188.861 191.752 186.814 191.131 185.074 189.968C183.334 188.805 181.977 187.153 181.176 185.219C180.375 183.285 180.165 181.157 180.574 179.104C180.982 177.051 181.99 175.165 183.47 173.685C184.95 172.205 186.836 171.197 188.889 170.789C190.942 170.38 193.07 170.59 195.004 171.391C196.938 172.192 198.591 173.548 199.754 175.289C200.916 177.029 201.537 179.075 201.537 181.169C201.515 183.961 200.39 186.632 198.408 188.598C196.426 190.565 193.746 191.669 190.954 191.669V191.752Z" fill="#FFDC84" fill-opacity="0.8"/>
</g>
<defs>
<clipPath id="clip0_462_95">
<rect width="250" height="250" fill="white"/>
</clipPath>
</defs>
</svg>
