<svg width="220" height="220" viewBox="0 0 220 220" fill="none" xmlns="http://www.w3.org/2000/svg">
<path d="M196.081 182.862H23.9194C15.7055 182.862 9.02344 176.18 9.02344 167.966V154.933C9.02344 153.746 9.98551 152.784 11.1719 152.784H208.828C210.015 152.784 210.977 153.746 210.977 154.933V167.966C210.977 176.18 204.294 182.862 196.081 182.862ZM13.3203 157.081V167.966C13.3203 173.811 18.0748 178.565 23.9194 178.565H196.081C201.926 178.565 206.68 173.811 206.68 167.966V157.081H13.3203Z" fill="#FFDC84" fill-opacity="0.75"/>
<path d="M208.828 157.081H11.1719C9.98551 157.081 9.02344 156.119 9.02344 154.933V58.8975C9.02344 49.0649 17.0229 41.0654 26.8555 41.0654H101.622C102.808 41.0654 103.77 42.0275 103.77 43.2139C103.77 44.4002 102.808 45.3623 101.622 45.3623H26.8555C19.3922 45.3623 13.3203 51.4342 13.3203 58.8975V152.784H206.68V58.8975C206.68 51.4342 200.608 45.3623 193.145 45.3623H144.159C142.972 45.3623 142.01 44.4002 142.01 43.2139C142.01 42.0275 142.972 41.0654 144.159 41.0654H193.145C202.977 41.0654 210.977 49.0649 210.977 58.8975V154.933C210.977 156.119 210.015 157.081 208.828 157.081Z" fill="#FFDC84" fill-opacity="0.75"/>
<path d="M76.2736 91.9804C75.712 91.9804 75.1633 91.76 74.7542 91.3514C74.1952 90.7923 73.9885 89.9721 74.2158 89.215L83.3308 58.8318C83.433 58.491 83.6178 58.1812 83.8692 57.9298L134.002 7.79691C137.248 4.55063 141.565 2.7627 146.155 2.7627C150.746 2.7627 155.062 4.55063 158.308 7.79691C161.555 11.0432 163.343 15.3594 163.343 19.9502C163.343 24.5414 161.555 28.8572 158.308 32.1039L108.176 82.2364C107.925 82.4878 107.615 82.673 107.274 82.7748L76.8911 91.8898C76.6878 91.9512 76.4798 91.9804 76.2736 91.9804ZM87.2903 60.5849L79.4778 86.6278L105.521 78.8148L155.27 29.0652C157.705 26.6301 159.046 23.3933 159.046 19.9502C159.046 16.5071 157.705 13.2698 155.27 10.8352C152.836 8.40019 149.598 7.05957 146.155 7.05957C142.712 7.05957 139.475 8.40062 137.04 10.8352L87.2903 60.5849Z" fill="#FFDC84" fill-opacity="0.75"/>
<path d="M92.9835 72.1501C90.5077 72.1501 88.0323 71.2078 86.1472 69.3232C82.378 65.5536 82.378 59.4202 86.1472 55.6505C86.986 54.8118 88.3464 54.8118 89.1855 55.6505C90.0247 56.4897 90.0247 57.8497 89.1855 58.6889C87.0912 60.7832 87.0912 64.1906 89.1855 66.2849C91.2798 68.3792 94.6873 68.3792 96.7816 66.2849C97.6212 65.4461 98.9811 65.4466 99.8199 66.2849C100.659 67.1241 100.659 68.4845 99.8199 69.3232C97.9353 71.2078 95.4594 72.1501 92.9835 72.1501Z" fill="#FFDC84" fill-opacity="0.75"/>
<path d="M103.617 82.7895C101.035 82.7895 98.607 81.7836 96.7809 79.9578C94.9547 78.1321 93.9492 75.7039 93.9492 73.1215C93.9492 70.5391 94.9551 68.1109 96.7809 66.2852L123.519 39.547C124.358 38.7083 125.719 38.7083 126.557 39.547C127.397 40.3862 127.397 41.7466 126.557 42.5854L99.8192 69.3235C98.8047 70.338 98.2457 71.6868 98.2457 73.1215C98.2457 74.5558 98.8043 75.905 99.8192 76.9191C100.834 77.9336 102.182 78.4926 103.617 78.4926C105.051 78.4926 106.4 77.934 107.415 76.9191C108.254 76.0804 109.614 76.0804 110.453 76.9191C111.292 77.7583 111.292 79.1182 110.454 79.9574C108.628 81.7836 106.2 82.7895 103.617 82.7895Z" fill="#FFDC84" fill-opacity="0.75"/>
<path d="M150.712 38.8093C150.162 38.8093 149.612 38.5996 149.193 38.1802L127.924 16.9115C127.085 16.0723 127.085 14.712 127.924 13.8732C128.763 13.0345 130.124 13.0345 130.962 13.8732L152.231 35.1419C153.07 35.9811 153.07 37.3414 152.231 38.1802C151.812 38.5996 151.261 38.8093 150.712 38.8093Z" fill="#FFDC84" fill-opacity="0.75"/>
<path d="M157.266 135.597H122.891C115.783 135.597 110 129.814 110 122.707C110 115.599 115.783 109.816 122.891 109.816H170.157C174.895 109.816 178.75 105.961 178.75 101.222V100.574C178.75 95.8356 174.895 91.9805 170.157 91.9805H76.2734C75.0871 91.9805 74.125 91.0184 74.125 89.832C74.125 88.6457 75.0871 87.6836 76.2734 87.6836H170.157C177.265 87.6836 183.047 93.4663 183.047 100.574V101.222C183.047 108.33 177.265 114.113 170.157 114.113H122.891C118.152 114.113 114.297 117.968 114.297 122.707C114.297 127.445 118.152 131.3 122.891 131.3H157.266C158.453 131.3 159.415 132.262 159.415 133.449C159.415 134.636 158.453 135.597 157.266 135.597Z" fill="#FFDC84" fill-opacity="0.75"/>
<path d="M75.625 137.745H11.1719C9.98551 137.745 9.02344 136.783 9.02344 135.597C9.02344 134.41 9.98551 133.448 11.1719 133.448H75.625C76.8114 133.448 77.7734 134.41 77.7734 135.597C77.7734 136.783 76.8114 137.745 75.625 137.745Z" fill="#FFDC84" fill-opacity="0.75"/>
<path d="M75.625 124.854H11.1719C9.98551 124.854 9.02344 123.893 9.02344 122.706C9.02344 121.519 9.98551 120.558 11.1719 120.558H75.625C76.8114 120.558 77.7734 121.519 77.7734 122.706C77.7734 123.893 76.8114 124.854 75.625 124.854Z" fill="#FFDC84" fill-opacity="0.75"/>
<path d="M75.625 111.964H11.1719C9.98551 111.964 9.02344 111.002 9.02344 109.815C9.02344 108.629 9.98551 107.667 11.1719 107.667H75.625C76.8114 107.667 77.7734 108.629 77.7734 109.815C77.7734 111.002 76.8114 111.964 75.625 111.964Z" fill="#FFDC84" fill-opacity="0.75"/>
<path d="M133.633 208.644H86.3672C85.1808 208.644 84.2188 207.682 84.2188 206.495V180.714C84.2188 179.527 85.1808 178.565 86.3672 178.565H133.633C134.82 178.565 135.781 179.527 135.781 180.714V206.495C135.781 207.682 134.82 208.644 133.633 208.644ZM88.5156 204.347H131.484V182.862H88.5156V204.347Z" fill="#FFDC84" fill-opacity="0.75"/>
<path d="M122.891 208.644H97.1094C95.923 208.644 94.9609 207.682 94.9609 206.495V180.714C94.9609 179.527 95.923 178.565 97.1094 178.565H122.891C124.077 178.565 125.039 179.527 125.039 180.714V206.495C125.039 207.682 124.077 208.644 122.891 208.644ZM99.2578 204.347H120.742V182.862H99.2578V204.347Z" fill="#FFDC84" fill-opacity="0.75"/>
<path d="M140.078 217.237H79.9219C76.3679 217.237 73.4766 214.346 73.4766 210.792C73.4766 207.238 76.3679 204.347 79.9219 204.347H140.078C143.632 204.347 146.523 207.238 146.523 210.792C146.523 214.346 143.632 217.237 140.078 217.237ZM79.9219 208.644C78.7372 208.644 77.7734 209.607 77.7734 210.792C77.7734 211.977 78.7372 212.94 79.9219 212.94H140.078C141.263 212.94 142.227 211.977 142.227 210.792C142.227 209.607 141.263 208.644 140.078 208.644H79.9219Z" fill="#FFDC84" fill-opacity="0.75"/>
</svg>
