<svg width="220" height="220" viewBox="0 0 220 220" fill="none" xmlns="http://www.w3.org/2000/svg">
<path d="M203.844 202.469V64.9688H200.406H162.594V202.469H156.063V99.3438H152.625H114.813V202.469H108.281V85.5938H104.844H67.0312V202.469H60.5V113.094H57.0625H19.25V202.469H13.75V209.344H19.25H60.5H67.0312H108.281H114.813H156.063H162.594H203.844H206.25V202.469H203.844ZM26.125 202.469V119.969H53.625V202.469H26.125ZM73.9062 92.4688H101.406V202.469H73.9062V92.4688ZM121.688 202.469V106.219H149.188V202.469H121.688ZM169.469 71.8438H196.969V202.469H169.469V71.8438Z" fill="#FFDC84" fill-opacity="0.75"/>
<path d="M90.0625 42.9687L126.156 78.375L188.719 15.8125L183.906 10.6562L126.156 68.4062L89.7188 33L29.2188 94.5312L34.375 99.3437L90.0625 42.9687Z" fill="#FFDC84" fill-opacity="0.75"/>
</svg>
