<svg width="1468" height="284" viewBox="0 0 1468 284" fill="none" xmlns="http://www.w3.org/2000/svg">
<path d="M162.79 11.5C182.423 11.5 198.337 14.0833 210.53 19.25C222.93 24.4167 231.92 31.1333 237.5 39.4C243.08 47.46 245.457 56.6567 244.63 66.99C244.01 77.1167 240.497 87.3467 234.09 97.68C227.89 107.807 218.9 117.52 207.12 126.82C195.547 135.913 181.597 143.457 165.27 149.45C174.363 153.583 182.01 160.093 188.21 168.98C194.41 177.66 197.51 189.543 197.51 204.63C197.51 215.377 195.237 225.297 190.69 234.39C186.143 243.277 180.15 250.923 172.71 257.33C165.477 263.737 157.107 268.697 147.6 272.21C138.3 275.723 128.793 277.48 119.08 277.48C109.987 277.48 101.513 276.653 93.66 275C85.8067 273.14 78.6767 270.867 72.27 268.18C69.9967 267.56 67.1033 266.423 63.59 264.77C60.2833 263.117 56.9767 261.153 53.67 258.88C50.57 256.4 47.78 253.92 45.3 251.44C43.0267 248.753 41.89 246.17 41.89 243.69C41.89 241.83 42.82 238.213 44.68 232.84C46.7467 227.467 49.4333 220.853 52.74 213C56.0467 204.94 59.87 196.053 64.21 186.34C68.7567 176.42 73.4067 165.983 78.16 155.03C77.1267 152.963 76.4033 150.793 75.99 148.52C75.7833 146.04 75.8867 143.767 76.3 141.7C76.7133 139.633 77.3333 137.98 78.16 136.74C79.1933 135.293 80.4333 134.57 81.88 134.57C82.7067 134.57 83.5333 134.673 84.36 134.88C85.1867 134.88 86.0133 134.88 86.84 134.88C94.28 117.727 101.41 100.78 108.23 84.04C115.05 67.3 120.527 52.11 124.66 38.47C113.087 44.2567 101.617 51.49 90.25 60.17C79.09 68.85 68.9633 78.3567 59.87 88.69C50.9833 98.8167 43.75 109.46 38.17 120.62C32.7967 131.573 30.11 142.32 30.11 152.86C30.11 157.2 30.42 160.507 31.04 162.78C31.66 165.053 32.3833 166.913 33.21 168.36C34.0367 169.6 34.76 170.633 35.38 171.46C36 172.287 36.31 173.32 36.31 174.56C36.31 177.247 34.45 178.177 30.73 177.35C27.01 176.317 22.98 173.63 18.64 169.29C14.3 164.95 10.27 158.957 6.55 151.31C2.83 143.457 0.969998 134.053 0.969998 123.1C0.969998 118.14 2.52 112.353 5.62 105.74C8.72 99.1267 13.06 92.3067 18.64 85.28C24.22 78.0467 30.9367 70.8133 38.79 63.58C46.85 56.3467 55.6333 49.5267 65.14 43.12C74.6467 36.7133 84.8767 31.1333 95.83 26.38C106.99 21.42 118.563 17.5967 130.55 14.91C131.17 11.6033 131.48 8.50333 131.48 5.60999C131.48 3.12999 132.1 1.68332 133.34 1.26999C134.787 0.649991 136.543 0.753323 138.61 1.57999C140.883 2.40666 143.363 3.74999 146.05 5.60999C148.737 7.26332 151.32 9.32998 153.8 11.81C155.453 11.6033 157.003 11.5 158.45 11.5C159.897 11.5 161.343 11.5 162.79 11.5ZM169.61 194.09C169.61 183.757 167.337 175.18 162.79 168.36C158.45 161.54 151.01 158.13 140.47 158.13C139.23 158.13 137.99 158.233 136.75 158.44C135.51 158.44 134.167 158.543 132.72 158.75C132.1 158.957 131.48 159.06 130.86 159.06C130.24 159.06 129.723 159.163 129.31 159.37C127.657 159.783 125.9 160.197 124.04 160.61C122.387 160.817 120.733 161.127 119.08 161.54C114.947 171.253 111.02 180.76 107.3 190.06C103.58 199.153 100.17 207.627 97.07 215.48C94.1767 223.333 91.5933 230.257 89.32 236.25C87.2533 242.243 85.91 246.893 85.29 250.2C89.63 250.82 94.4867 251.13 99.86 251.13C111.02 251.13 120.94 249.167 129.62 245.24C138.3 241.107 145.533 236.147 151.32 230.36C157.313 224.573 161.86 218.373 164.96 211.76C168.06 205.147 169.61 199.257 169.61 194.09ZM129.31 136.74C144.397 135.5 157.21 131.883 167.75 125.89C178.497 119.897 187.073 112.767 193.48 104.5C199.887 96.2333 204.227 87.5533 206.5 78.46C208.773 69.16 208.98 60.5833 207.12 52.73C205.26 44.8767 201.333 38.3667 195.34 33.2C189.553 28.0333 181.7 25.45 171.78 25.45C170.747 25.45 169.61 25.45 168.37 25.45C167.13 25.45 165.993 25.5533 164.96 25.76C166.613 29.2733 167.337 32.27 167.13 34.75C167.13 37.23 166.097 41.7767 164.03 48.39C161.963 55.0033 159.173 62.96 155.66 72.26C152.147 81.3533 148.117 91.48 143.57 102.64C139.023 113.593 134.27 124.96 129.31 136.74ZM363.735 168.05C365.182 166.19 366.422 165.57 367.455 166.19C368.489 166.603 369.212 167.533 369.625 168.98C370.245 170.427 370.555 171.977 370.555 173.63C370.762 175.283 370.659 176.42 370.245 177.04C367.972 180.14 364.459 184.79 359.705 190.99C355.159 196.983 349.682 203.7 343.275 211.14C337.075 218.373 330.152 225.813 322.505 233.46C315.065 240.9 307.315 247.823 299.255 254.23C291.402 260.43 283.445 265.493 275.385 269.42C267.532 273.347 260.092 275.31 253.065 275.31C247.899 275.31 242.422 273.967 236.635 271.28C231.055 268.387 225.889 264.873 221.135 260.74C216.382 256.4 212.559 251.853 209.665 247.1C206.565 242.347 205.222 238.11 205.635 234.39C206.462 225.09 208.425 215.79 211.525 206.49C214.419 197.19 218.139 188.407 222.685 180.14C227.025 171.667 231.882 163.813 237.255 156.58C242.629 149.14 248.105 142.837 253.685 137.67C259.472 132.297 265.155 128.06 270.735 124.96C276.315 121.86 281.379 120.31 285.925 120.31C291.712 120.31 297.292 121.86 302.665 124.96C308.039 128.06 312.585 131.987 316.305 136.74C320.232 141.287 323.229 146.247 325.295 151.62C327.569 156.993 328.602 161.85 328.395 166.19C327.982 170.53 325.915 175.903 322.195 182.31C318.682 188.51 314.135 194.503 308.555 200.29C302.975 205.87 296.775 210.727 289.955 214.86C283.135 218.993 276.212 221.06 269.185 221.06C265.052 221.06 261.332 220.853 258.025 220.44C254.925 219.82 252.032 218.993 249.345 217.96C247.279 223.54 245.625 228.81 244.385 233.77C243.145 238.523 242.422 242.76 242.215 246.48C242.215 249.993 242.835 252.887 244.075 255.16C245.522 257.227 247.692 258.26 250.585 258.26C256.992 258.26 263.709 256.71 270.735 253.61C277.762 250.303 284.789 246.067 291.815 240.9C299.049 235.733 306.075 229.843 312.895 223.23C319.922 216.617 326.535 210.003 332.735 203.39C338.935 196.57 344.619 190.163 349.785 184.17C355.159 177.97 359.809 172.597 363.735 168.05ZM298.635 143.25C296.362 143.25 293.675 144.593 290.575 147.28C287.682 149.967 284.479 153.583 280.965 158.13C277.659 162.677 274.249 167.947 270.735 173.94C267.222 179.933 263.812 186.133 260.505 192.54C268.565 190.68 275.592 187.063 281.585 181.69C287.785 176.317 292.642 170.84 296.155 165.26C299.875 159.473 301.942 154.41 302.355 150.07C302.975 145.523 301.735 143.25 298.635 143.25ZM479.21 169.91C480.864 167.43 482.207 166.5 483.24 167.12C484.274 167.74 484.997 168.98 485.41 170.84C486.03 172.7 486.237 174.767 486.03 177.04C486.03 179.107 485.824 180.45 485.41 181.07C483.344 184.17 480.554 188.82 477.04 195.02C473.527 201.22 469.394 208.04 464.64 215.48C460.094 222.713 455.134 230.257 449.76 238.11C444.387 245.757 438.91 252.887 433.33 259.5C427.957 265.907 422.48 271.28 416.9 275.62C411.527 279.96 406.464 282.44 401.71 283.06C401.504 283.06 401.194 283.06 400.78 283.06C400.574 283.267 400.264 283.37 399.85 283.37C398.197 283.37 395.304 283.06 391.17 282.44C387.037 281.82 382.8 280.58 378.46 278.72C374.12 276.86 370.4 274.277 367.3 270.97C364.2 267.663 362.857 263.22 363.27 257.64C363.684 252.06 365.544 245.447 368.85 237.8C372.157 230.153 375.67 222.507 379.39 214.86C383.11 207.213 386.52 200.083 389.62 193.47C392.72 186.857 394.374 182 394.58 178.9C394.994 175.18 394.064 171.977 391.79 169.29C389.517 166.397 386.314 163.503 382.18 160.61C379.287 165.157 376.394 169.29 373.5 173.01C370.814 176.73 368.644 179.727 366.99 182C366.37 183.033 365.544 183.24 364.51 182.62C363.477 182 362.547 181.07 361.72 179.83C360.894 178.383 360.377 176.937 360.17 175.49C359.757 174.043 359.86 172.803 360.48 171.77C362.134 169.703 363.89 167.223 365.75 164.33C367.61 161.23 369.78 157.923 372.26 154.41C368.747 151.93 365.234 149.243 361.72 146.35C358.207 143.457 355.21 140.047 352.73 136.12C350.044 132.193 348.08 127.75 346.84 122.79C345.394 117.83 344.98 112.043 345.6 105.43C346.22 97.37 348.804 89.93 353.35 83.11C357.69 76.29 362.754 70.4 368.54 65.44C374.327 60.2733 380.217 56.3467 386.21 53.66C392.41 50.7667 397.577 49.32 401.71 49.32C406.257 49.32 409.977 51.6967 412.87 56.45C415.97 60.9967 417.004 68.85 415.97 80.01C415.144 89.1033 412.767 98.61 408.84 108.53C405.12 118.243 400.78 127.75 395.82 137.05C399.747 140.15 403.984 143.043 408.53 145.73C413.284 148.21 417.52 150.897 421.24 153.79C425.167 156.683 428.267 159.99 430.54 163.71C433.02 167.43 434.054 172.08 433.64 177.66C433.434 180.14 432.194 184.583 429.92 190.99C427.854 197.397 425.374 204.527 422.48 212.38C419.794 220.233 416.9 228.19 413.8 236.25C410.907 244.31 408.427 251.337 406.36 257.33C404.707 263.117 405.224 266.01 407.91 266.01C410.184 266.01 412.974 264.357 416.28 261.05C419.794 257.537 423.617 253.093 427.75 247.72C431.884 242.14 436.224 235.94 440.77 229.12C445.524 222.093 450.174 215.067 454.72 208.04C459.267 200.807 463.607 193.883 467.74 187.27C472.08 180.657 475.904 174.87 479.21 169.91ZM381.25 104.19C380.837 109.563 381.25 114.317 382.49 118.45C383.73 122.377 385.59 125.89 388.07 128.99C392.617 120.723 396.544 112.25 399.85 103.57C403.364 94.89 405.43 86.83 406.05 79.39C406.67 72.7767 406.464 68.3333 405.43 66.06C404.397 63.7867 402.744 62.65 400.47 62.65C398.61 62.65 396.544 64.0967 394.27 66.99C392.204 69.8833 390.24 73.5 388.38 77.84C386.52 81.9733 384.867 86.4166 383.42 91.17C382.18 95.9233 381.457 100.263 381.25 104.19ZM654.699 170.22C656.353 167.74 657.696 166.81 658.729 167.43C659.763 168.05 660.486 169.29 660.899 171.15C661.519 173.01 661.726 175.077 661.519 177.35C661.519 179.417 661.313 180.76 660.899 181.38C658.833 184.48 655.836 188.923 651.909 194.71C648.189 200.497 643.746 206.903 638.579 213.93C633.619 220.75 628.246 227.88 622.459 235.32C616.673 242.553 610.783 249.27 604.789 255.47C599.003 261.463 593.216 266.63 587.429 270.97C581.643 275.103 576.373 277.583 571.619 278.41C569.966 279.03 567.176 278.823 563.249 277.79C559.323 276.757 555.396 275 551.469 272.52C547.749 270.04 544.443 266.837 541.549 262.91C538.863 258.983 537.726 254.437 538.139 249.27C538.346 245.343 539.793 239.763 542.479 232.53C545.166 225.297 548.266 217.34 551.779 208.66C555.499 199.98 559.426 190.99 563.559 181.69C567.693 172.183 571.413 163.193 574.719 154.72C570.793 158.853 566.039 164.02 560.459 170.22C555.086 176.42 549.299 183.033 543.099 190.06C537.106 197.087 531.009 204.32 524.809 211.76C518.609 218.993 512.823 225.917 507.449 232.53C502.076 239.143 497.426 245.137 493.499 250.51C489.779 255.883 487.196 260.12 485.749 263.22C485.543 265.907 485.646 268.077 486.059 269.73C486.473 271.383 485.956 272.83 484.509 274.07C483.269 275.103 480.686 275.207 476.759 274.38C472.833 273.553 468.803 271.9 464.669 269.42C460.536 266.94 456.919 263.737 453.819 259.81C450.719 255.677 449.376 250.82 449.789 245.24C449.996 241.52 451.236 236.56 453.509 230.36C455.783 224.16 458.573 217.34 461.879 209.9C465.186 202.46 468.699 194.607 472.419 186.34C476.139 178.073 479.549 170.117 482.649 162.47C485.956 154.823 488.746 147.797 491.019 141.39C493.293 134.777 494.636 129.403 495.049 125.27C495.256 121.55 497.219 119.793 500.939 120C504.659 120.207 508.586 121.55 512.719 124.03C517.059 126.51 520.883 129.61 524.189 133.33C527.496 136.843 529.046 140.15 528.839 143.25C528.633 145.11 527.703 148.52 526.049 153.48C524.603 158.233 522.639 163.917 520.159 170.53C517.679 176.937 514.889 183.963 511.789 191.61C508.896 199.257 506.003 206.8 503.109 214.24C506.003 210.313 509.619 205.56 513.959 199.98C518.506 194.193 523.259 188.097 528.219 181.69C533.386 175.077 538.759 168.463 544.339 161.85C549.919 155.03 555.293 148.727 560.459 142.94C565.626 137.153 570.379 132.193 574.719 128.06C579.266 123.72 583.089 120.723 586.189 119.07C586.603 118.657 587.429 118.243 588.669 117.83C589.083 117.623 589.599 117.52 590.219 117.52C591.459 117.52 592.286 117.623 592.699 117.83C595.179 118.243 597.969 119.277 601.069 120.93C604.169 122.583 606.959 124.547 609.439 126.82C612.126 129.093 614.296 131.47 615.949 133.95C617.603 136.43 618.326 138.807 618.119 141.08C617.913 142.94 616.983 146.247 615.329 151C613.883 155.753 611.919 161.54 609.439 168.36C607.166 174.973 604.479 182.207 601.379 190.06C598.486 197.707 595.593 205.457 592.699 213.31C589.806 220.957 587.016 228.293 584.329 235.32C581.643 242.347 579.473 248.34 577.819 253.3C576.579 257.847 577.199 260.12 579.679 260.12C582.986 260.12 587.739 256.813 593.939 250.2C600.346 243.587 607.166 235.63 614.399 226.33C621.839 216.823 629.073 207.007 636.099 196.88C643.333 186.547 649.533 177.66 654.699 170.22ZM826.58 169.6C828.233 167.12 829.577 166.19 830.61 166.81C831.643 167.43 832.367 168.67 832.78 170.53C833.4 172.39 833.607 174.457 833.4 176.73C833.4 178.797 833.193 180.14 832.78 180.76C830.713 184.067 827.717 188.613 823.79 194.4C820.07 199.98 815.73 206.18 810.77 213C805.81 219.82 800.437 226.847 794.65 234.08C789.07 241.107 783.283 247.617 777.29 253.61C771.503 259.603 765.717 264.563 759.93 268.49C754.35 272.417 749.183 274.69 744.43 275.31H742.57C740.917 275.31 738.023 275 733.89 274.38C729.757 273.76 725.52 272.623 721.18 270.97C716.84 269.11 713.12 266.527 710.02 263.22C706.92 259.913 705.577 255.47 705.99 249.89C706.197 248.443 706.403 246.893 706.61 245.24C707.023 243.587 707.54 241.623 708.16 239.35C704.44 244.103 700.72 248.65 697 252.99C693.487 257.123 690.077 260.843 686.77 264.15C683.463 267.457 680.363 270.143 677.47 272.21C674.783 274.07 672.51 275 670.65 275C666.517 275 661.763 274.07 656.39 272.21C651.017 270.35 646.057 267.767 641.51 264.46C636.757 260.947 632.933 256.813 630.04 252.06C626.94 247.307 625.597 242.037 626.01 236.25C626.423 232.323 627.973 226.743 630.66 219.51C633.14 212.277 636.343 204.32 640.27 195.64C644.197 186.96 648.64 178.177 653.6 169.29C658.56 160.403 663.623 152.343 668.79 145.11C673.957 137.67 679.02 131.677 683.98 127.13C688.94 122.377 693.487 120 697.62 120C703.2 120 708.367 120.93 713.12 122.79C717.873 124.443 722.213 126.613 726.14 129.3C730.273 131.987 733.89 134.983 736.99 138.29C740.297 141.39 743.087 144.387 745.36 147.28C749.493 137.567 751.767 131.16 752.18 128.06C752.387 124.34 754.35 122.583 758.07 122.79C761.79 122.997 765.717 124.34 769.85 126.82C773.983 129.3 777.703 132.4 781.01 136.12C784.317 139.633 785.867 142.94 785.66 146.04C785.453 148.727 783.903 154.307 781.01 162.78C778.117 171.047 774.707 180.45 770.78 190.99C766.853 201.53 762.823 212.173 758.69 222.92C754.763 233.667 751.56 242.657 749.08 249.89C747.427 255.263 747.943 257.95 750.63 257.95C752.903 257.95 755.797 256.503 759.31 253.61C763.03 250.51 767.163 246.48 771.71 241.52C776.257 236.56 781.01 230.98 785.97 224.78C791.137 218.58 796.097 212.173 800.85 205.56C805.81 198.947 810.46 192.54 814.8 186.34C819.347 180.14 823.273 174.56 826.58 169.6ZM671.27 256.09C673.13 256.09 675.61 254.54 678.71 251.44C682.017 248.34 685.633 244.31 689.56 239.35C693.693 234.183 697.93 228.5 702.27 222.3C706.61 216.1 710.847 209.9 714.98 203.7C719.113 197.5 722.937 191.61 726.45 186.03C729.963 180.45 732.857 175.8 735.13 172.08C736.163 169.187 737.197 166.5 738.23 164.02C739.47 161.333 740.607 158.75 741.64 156.27C739.16 155.03 736.267 153.893 732.96 152.86C729.86 151.827 726.243 151.31 722.11 151.31C719.217 151.31 715.6 153.893 711.26 159.06C706.92 164.227 702.477 170.737 697.93 178.59C693.383 186.237 689.043 194.607 684.91 203.7C680.777 212.793 677.263 221.267 674.37 229.12C671.683 236.767 669.927 243.173 669.1 248.34C668.273 253.507 668.997 256.09 671.27 256.09ZM1000.35 169.6C1002 167.12 1003.35 166.19 1004.38 166.81C1005.41 167.43 1006.14 168.67 1006.55 170.53C1006.96 172.39 1007.17 174.457 1007.17 176.73C1007.17 178.797 1006.96 180.14 1006.55 180.76C1004.48 184.067 1001.49 188.613 997.559 194.4C993.839 199.98 989.396 206.18 984.229 213C979.269 219.82 973.896 226.847 968.109 234.08C962.529 241.107 956.743 247.617 950.749 253.61C944.963 259.603 939.279 264.563 933.699 268.49C928.119 272.417 922.953 274.69 918.199 275.31H916.029C914.376 275.31 911.483 275 907.349 274.38C903.216 273.76 898.979 272.623 894.639 270.97C890.299 269.11 886.579 266.527 883.479 263.22C880.379 259.913 879.036 255.47 879.449 249.89C879.863 247.203 880.793 243.587 882.239 239.04C878.519 243.793 874.799 248.34 871.079 252.68C867.359 257.02 863.743 260.843 860.229 264.15C856.923 267.457 853.823 270.143 850.929 272.21C848.243 274.07 845.969 275 844.109 275C839.976 275 835.223 274.07 829.849 272.21C824.476 270.35 819.516 267.767 814.969 264.46C810.216 260.947 806.393 256.813 803.499 252.06C800.399 247.307 799.159 242.037 799.779 236.25C799.986 232.323 801.433 226.743 804.119 219.51C806.599 212.277 809.803 204.32 813.729 195.64C817.656 186.96 822.099 178.177 827.059 169.29C832.019 160.403 837.083 152.343 842.249 145.11C847.623 137.67 852.789 131.677 857.749 127.13C862.709 122.377 867.256 120 871.389 120C876.349 120 881.103 120.827 885.649 122.48C890.196 123.927 894.329 125.787 898.049 128.06C901.976 130.333 905.489 133.02 908.589 136.12C911.689 139.013 914.479 141.803 916.959 144.49C924.193 124.237 930.703 103.777 936.489 83.11C942.483 62.2367 946.306 43.12 947.959 25.76C948.166 23.28 949.406 21.8333 951.679 21.42C953.953 21.0067 956.743 21.42 960.049 22.66C963.356 23.6933 966.869 25.3467 970.589 27.62C974.309 29.6867 977.719 32.0633 980.819 34.75C984.126 37.23 986.709 39.8133 988.569 42.5C990.636 45.1867 991.566 47.5633 991.359 49.63C991.153 51.49 989.603 56.6567 986.709 65.13C984.023 73.6033 980.509 84.04 976.169 96.44C972.036 108.633 967.386 122.067 962.219 136.74C957.053 151.413 951.886 165.88 946.719 180.14C941.759 194.193 937.109 207.42 932.769 219.82C928.429 232.22 925.019 242.14 922.539 249.58C920.886 255.16 921.506 257.95 924.399 257.95C926.466 257.95 929.359 256.503 933.079 253.61C936.799 250.51 940.829 246.48 945.169 241.52C949.716 236.56 954.469 230.98 959.429 224.78C964.596 218.58 969.556 212.173 974.309 205.56C979.269 198.947 983.919 192.54 988.259 186.34C992.806 180.14 996.836 174.56 1000.35 169.6ZM844.729 256.09C846.383 256.09 848.656 254.85 851.549 252.37C854.443 249.683 857.646 246.273 861.159 242.14C864.673 237.8 868.289 232.943 872.009 227.57C875.936 222.197 879.759 216.72 883.479 211.14C887.406 205.353 891.126 199.773 894.639 194.4C898.153 188.82 901.253 183.86 903.939 179.52C905.593 175.593 907.039 171.563 908.279 167.43C909.726 163.297 911.276 159.163 912.929 155.03C910.656 153.997 908.073 153.17 905.179 152.55C902.286 151.723 899.083 151.31 895.569 151.31C892.676 151.31 889.059 153.893 884.719 159.06C880.586 164.227 876.246 170.737 871.699 178.59C867.153 186.237 862.709 194.607 858.369 203.7C854.236 212.793 850.723 221.267 847.829 229.12C845.143 236.767 843.386 243.173 842.559 248.34C841.733 253.507 842.456 256.09 844.729 256.09ZM1136.31 168.05C1137.76 166.19 1139 165.57 1140.03 166.19C1141.07 166.603 1141.79 167.533 1142.2 168.98C1142.82 170.427 1143.13 171.977 1143.13 173.63C1143.34 175.283 1143.24 176.42 1142.82 177.04C1140.55 180.14 1137.04 184.79 1132.28 190.99C1127.74 196.983 1122.26 203.7 1115.85 211.14C1109.65 218.373 1102.73 225.813 1095.08 233.46C1087.64 240.9 1079.89 247.823 1071.83 254.23C1063.98 260.43 1056.02 265.493 1047.96 269.42C1040.11 273.347 1032.67 275.31 1025.64 275.31C1020.48 275.31 1015 273.967 1009.21 271.28C1003.63 268.387 998.467 264.873 993.714 260.74C988.96 256.4 985.137 251.853 982.244 247.1C979.144 242.347 977.8 238.11 978.214 234.39C979.04 225.09 981.004 215.79 984.104 206.49C986.997 197.19 990.717 188.407 995.264 180.14C999.604 171.667 1004.46 163.813 1009.83 156.58C1015.21 149.14 1020.68 142.837 1026.26 137.67C1032.05 132.297 1037.73 128.06 1043.31 124.96C1048.89 121.86 1053.96 120.31 1058.5 120.31C1064.29 120.31 1069.87 121.86 1075.24 124.96C1080.62 128.06 1085.16 131.987 1088.88 136.74C1092.81 141.287 1095.81 146.247 1097.87 151.62C1100.15 156.993 1101.18 161.85 1100.97 166.19C1100.56 170.53 1098.49 175.903 1094.77 182.31C1091.26 188.51 1086.71 194.503 1081.13 200.29C1075.55 205.87 1069.35 210.727 1062.53 214.86C1055.71 218.993 1048.79 221.06 1041.76 221.06C1037.63 221.06 1033.91 220.853 1030.6 220.44C1027.5 219.82 1024.61 218.993 1021.92 217.96C1019.86 223.54 1018.2 228.81 1016.96 233.77C1015.72 238.523 1015 242.76 1014.79 246.48C1014.79 249.993 1015.41 252.887 1016.65 255.16C1018.1 257.227 1020.27 258.26 1023.16 258.26C1029.57 258.26 1036.29 256.71 1043.31 253.61C1050.34 250.303 1057.37 246.067 1064.39 240.9C1071.63 235.733 1078.65 229.843 1085.47 223.23C1092.5 216.617 1099.11 210.003 1105.31 203.39C1111.51 196.57 1117.2 190.163 1122.36 184.17C1127.74 177.97 1132.39 172.597 1136.31 168.05ZM1071.21 143.25C1068.94 143.25 1066.25 144.593 1063.15 147.28C1060.26 149.967 1057.06 153.583 1053.54 158.13C1050.24 162.677 1046.83 167.947 1043.31 173.94C1039.8 179.933 1036.39 186.133 1033.08 192.54C1041.14 190.68 1048.17 187.063 1054.16 181.69C1060.36 176.317 1065.22 170.84 1068.73 165.26C1072.45 159.473 1074.52 154.41 1074.93 150.07C1075.55 145.523 1074.31 143.25 1071.21 143.25ZM1246.17 76.91C1254.44 76.91 1260.74 78.2533 1265.08 80.94C1269.63 83.42 1272.73 86.21 1274.38 89.31C1276.24 92.2033 1276.97 94.9933 1276.55 97.68C1276.14 100.16 1275.11 101.4 1273.45 101.4C1272.01 101.4 1270.87 101.09 1270.04 100.47C1269.42 99.6433 1268.39 98.92 1266.94 98.3C1265.5 97.4733 1263.43 96.75 1260.74 96.13C1258.26 95.3033 1254.44 94.89 1249.27 94.89C1245.76 94.89 1240.08 95.4067 1232.22 96.44C1224.58 97.4733 1215.9 98.8167 1206.18 100.47C1201.84 112.663 1197.09 125.89 1191.92 140.15C1186.96 154.41 1182.11 168.463 1177.35 182.31C1172.6 195.95 1168.16 208.66 1164.02 220.44C1159.89 232.22 1156.58 241.727 1154.1 248.96C1152.45 254.747 1153.07 257.64 1155.96 257.64C1158.03 257.64 1160.92 256.193 1164.64 253.3C1168.36 250.2 1172.39 246.17 1176.73 241.21C1181.28 236.25 1186.03 230.67 1190.99 224.47C1196.16 218.063 1201.12 211.657 1205.87 205.25C1210.83 198.637 1215.48 192.23 1219.82 186.03C1224.37 179.623 1228.4 173.94 1231.91 168.98C1233.57 166.5 1234.91 165.57 1235.94 166.19C1236.98 166.81 1237.7 168.05 1238.11 169.91C1238.73 171.77 1238.94 173.837 1238.73 176.11C1238.73 178.177 1238.53 179.623 1238.11 180.45C1236.05 183.757 1233.05 188.303 1229.12 194.09C1225.4 199.67 1220.96 205.87 1215.79 212.69C1210.83 219.51 1205.46 226.537 1199.67 233.77C1194.09 240.797 1188.31 247.307 1182.31 253.3C1176.53 259.087 1170.84 264.047 1165.26 268.18C1159.68 272.107 1154.52 274.277 1149.76 274.69C1149.35 274.69 1148.94 274.793 1148.52 275C1148.32 275 1148.01 275 1147.59 275C1145.94 275 1143.05 274.69 1138.91 274.07C1134.78 273.45 1130.54 272.21 1126.2 270.35C1121.86 268.49 1118.14 265.907 1115.04 262.6C1111.94 259.293 1110.6 254.85 1111.01 249.27C1111.43 245.55 1113.29 239.04 1116.59 229.74C1119.9 220.233 1124.03 209.073 1128.99 196.26C1133.75 183.447 1138.91 169.393 1144.49 154.1C1150.28 138.807 1155.65 123.307 1160.61 107.6C1155.45 108.22 1150.69 108.737 1146.35 109.15C1142.01 109.563 1138.4 109.77 1135.5 109.77C1129.51 109.77 1124.65 107.91 1120.93 104.19C1117.01 100.47 1114.22 96.44 1112.56 92.1C1110.7 87.76 1109.88 83.73 1110.08 80.01C1110.08 76.29 1111.12 74.43 1113.18 74.43C1114.01 74.43 1115.15 74.9467 1116.59 75.98C1118.04 76.8067 1120.11 77.84 1122.79 79.08C1125.27 80.32 1128.58 81.4567 1132.71 82.49C1136.64 83.3167 1141.6 83.73 1147.59 83.73C1151.52 83.73 1155.14 83.73 1158.44 83.73C1161.75 83.5233 1164.95 83.42 1168.05 83.42C1170.95 72.88 1173.32 62.7533 1175.18 53.04C1177.25 43.3267 1178.7 34.13 1179.52 25.45C1179.73 22.97 1180.97 21.5233 1183.24 21.11C1185.52 20.6967 1188.31 21.0067 1191.61 22.04C1194.92 23.0733 1198.43 24.7267 1202.15 27C1205.87 29.0667 1209.28 31.4433 1212.38 34.13C1215.69 36.61 1218.27 39.1933 1220.13 41.88C1222.2 44.5667 1223.13 46.9433 1222.92 49.01C1222.72 50.4567 1221.79 53.8666 1220.13 59.24C1218.69 64.6133 1216.52 71.2267 1213.62 79.08C1218.79 78.46 1223.85 77.9433 1228.81 77.53C1233.77 77.1167 1239.56 76.91 1246.17 76.91ZM1339.11 76.91C1347.38 76.91 1353.68 78.2533 1358.02 80.94C1362.57 83.42 1365.67 86.21 1367.32 89.31C1369.18 92.2033 1369.9 94.9933 1369.49 97.68C1369.08 100.16 1368.04 101.4 1366.39 101.4C1364.94 101.4 1363.81 101.09 1362.98 100.47C1362.36 99.6433 1361.33 98.92 1359.88 98.3C1358.43 97.4733 1356.37 96.75 1353.68 96.13C1351.2 95.3033 1347.38 94.89 1342.21 94.89C1338.7 94.89 1333.01 95.4067 1325.16 96.44C1317.51 97.4733 1308.83 98.8167 1299.12 100.47C1294.78 112.663 1290.03 125.89 1284.86 140.15C1279.9 154.41 1275.04 168.463 1270.29 182.31C1265.54 195.95 1261.09 208.66 1256.96 220.44C1252.83 232.22 1249.52 241.727 1247.04 248.96C1245.39 254.747 1246.01 257.64 1248.9 257.64C1250.97 257.64 1253.86 256.193 1257.58 253.3C1261.3 250.2 1265.33 246.17 1269.67 241.21C1274.22 236.25 1278.97 230.67 1283.93 224.47C1289.1 218.063 1294.06 211.657 1298.81 205.25C1303.77 198.637 1308.42 192.23 1312.76 186.03C1317.31 179.623 1321.34 173.94 1324.85 168.98C1326.5 166.5 1327.85 165.57 1328.88 166.19C1329.91 166.81 1330.64 168.05 1331.05 169.91C1331.67 171.77 1331.88 173.837 1331.67 176.11C1331.67 178.177 1331.46 179.623 1331.05 180.45C1328.98 183.757 1325.99 188.303 1322.06 194.09C1318.34 199.67 1313.9 205.87 1308.73 212.69C1303.77 219.51 1298.4 226.537 1292.61 233.77C1287.03 240.797 1281.24 247.307 1275.25 253.3C1269.46 259.087 1263.78 264.047 1258.2 268.18C1252.62 272.107 1247.45 274.277 1242.7 274.69C1242.29 274.69 1241.87 274.793 1241.46 275C1241.25 275 1240.94 275 1240.53 275C1238.88 275 1235.98 274.69 1231.85 274.07C1227.72 273.45 1223.48 272.21 1219.14 270.35C1214.8 268.49 1211.08 265.907 1207.98 262.6C1204.88 259.293 1203.54 254.85 1203.95 249.27C1204.36 245.55 1206.22 239.04 1209.53 229.74C1212.84 220.233 1216.97 209.073 1221.93 196.26C1226.68 183.447 1231.85 169.393 1237.43 154.1C1243.22 138.807 1248.59 123.307 1253.55 107.6C1248.38 108.22 1243.63 108.737 1239.29 109.15C1234.95 109.563 1231.33 109.77 1228.44 109.77C1222.45 109.77 1217.59 107.91 1213.87 104.19C1209.94 100.47 1207.15 96.44 1205.5 92.1C1203.64 87.76 1202.81 83.73 1203.02 80.01C1203.02 76.29 1204.05 74.43 1206.12 74.43C1206.95 74.43 1208.08 74.9467 1209.53 75.98C1210.98 76.8067 1213.04 77.84 1215.73 79.08C1218.21 80.32 1221.52 81.4567 1225.65 82.49C1229.58 83.3167 1234.54 83.73 1240.53 83.73C1244.46 83.73 1248.07 83.73 1251.38 83.73C1254.69 83.5233 1257.89 83.42 1260.99 83.42C1263.88 72.88 1266.26 62.7533 1268.12 53.04C1270.19 43.3267 1271.63 34.13 1272.46 25.45C1272.67 22.97 1273.91 21.5233 1276.18 21.11C1278.45 20.6967 1281.24 21.0067 1284.55 22.04C1287.86 23.0733 1291.37 24.7267 1295.09 27C1298.81 29.0667 1302.22 31.4433 1305.32 34.13C1308.63 36.61 1311.21 39.1933 1313.07 41.88C1315.14 44.5667 1316.07 46.9433 1315.86 49.01C1315.65 50.4567 1314.72 53.8666 1313.07 59.24C1311.62 64.6133 1309.45 71.2267 1306.56 79.08C1311.73 78.46 1316.79 77.9433 1321.75 77.53C1326.71 77.1167 1332.5 76.91 1339.11 76.91ZM1460.24 168.05C1461.69 166.19 1462.93 165.57 1463.96 166.19C1464.99 166.603 1465.72 167.533 1466.13 168.98C1466.75 170.427 1467.06 171.977 1467.06 173.63C1467.27 175.283 1467.16 176.42 1466.75 177.04C1464.48 180.14 1460.96 184.79 1456.21 190.99C1451.66 196.983 1446.19 203.7 1439.78 211.14C1433.58 218.373 1426.66 225.813 1419.01 233.46C1411.57 240.9 1403.82 247.823 1395.76 254.23C1387.91 260.43 1379.95 265.493 1371.89 269.42C1364.04 273.347 1356.6 275.31 1349.57 275.31C1344.4 275.31 1338.93 273.967 1333.14 271.28C1327.56 268.387 1322.39 264.873 1317.64 260.74C1312.89 256.4 1309.06 251.853 1306.17 247.1C1303.07 242.347 1301.73 238.11 1302.14 234.39C1302.97 225.09 1304.93 215.79 1308.03 206.49C1310.92 197.19 1314.64 188.407 1319.19 180.14C1323.53 171.667 1328.39 163.813 1333.76 156.58C1339.13 149.14 1344.61 142.837 1350.19 137.67C1355.98 132.297 1361.66 128.06 1367.24 124.96C1372.82 121.86 1377.88 120.31 1382.43 120.31C1388.22 120.31 1393.8 121.86 1399.17 124.96C1404.54 128.06 1409.09 131.987 1412.81 136.74C1416.74 141.287 1419.73 146.247 1421.8 151.62C1424.07 156.993 1425.11 161.85 1424.9 166.19C1424.49 170.53 1422.42 175.903 1418.7 182.31C1415.19 188.51 1410.64 194.503 1405.06 200.29C1399.48 205.87 1393.28 210.727 1386.46 214.86C1379.64 218.993 1372.72 221.06 1365.69 221.06C1361.56 221.06 1357.84 220.853 1354.53 220.44C1351.43 219.82 1348.54 218.993 1345.85 217.96C1343.78 223.54 1342.13 228.81 1340.89 233.77C1339.65 238.523 1338.93 242.76 1338.72 246.48C1338.72 249.993 1339.34 252.887 1340.58 255.16C1342.03 257.227 1344.2 258.26 1347.09 258.26C1353.5 258.26 1360.21 256.71 1367.24 253.61C1374.27 250.303 1381.29 246.067 1388.32 240.9C1395.55 235.733 1402.58 229.843 1409.4 223.23C1416.43 216.617 1423.04 210.003 1429.24 203.39C1435.44 196.57 1441.12 190.163 1446.29 184.17C1451.66 177.97 1456.31 172.597 1460.24 168.05ZM1395.14 143.25C1392.87 143.25 1390.18 144.593 1387.08 147.28C1384.19 149.967 1380.98 153.583 1377.47 158.13C1374.16 162.677 1370.75 167.947 1367.24 173.94C1363.73 179.933 1360.32 186.133 1357.01 192.54C1365.07 190.68 1372.1 187.063 1378.09 181.69C1384.29 176.317 1389.15 170.84 1392.66 165.26C1396.38 159.473 1398.45 154.41 1398.86 150.07C1399.48 145.523 1398.24 143.25 1395.14 143.25Z" fill="#FFDC84"/>
</svg>
