<svg width="2263" height="228" viewBox="0 0 2263 228" fill="none" xmlns="http://www.w3.org/2000/svg">
<path d="M0.610001 224V3.49998H34.315L130.705 164.465H113.065L207.88 3.49998H241.585L241.9 224H203.155L202.84 64.295H211.03L130.39 198.8H112.12L30.22 64.295H39.67V224H0.610001ZM404.78 227.15C387.56 227.15 371.705 224.315 357.215 218.645C342.725 212.975 330.125 205.1 319.415 195.02C308.705 184.73 300.41 172.76 294.53 159.11C288.65 145.25 285.71 130.13 285.71 113.75C285.71 97.37 288.65 82.355 294.53 68.705C300.41 54.845 308.705 42.875 319.415 32.795C330.125 22.505 342.725 14.525 357.215 8.85499C371.705 3.18499 387.455 0.349988 404.465 0.349988C421.685 0.349988 437.435 3.18499 451.715 8.85499C466.205 14.525 478.805 22.505 489.515 32.795C500.225 42.875 508.52 54.845 514.4 68.705C520.28 82.355 523.22 97.37 523.22 113.75C523.22 130.13 520.28 145.25 514.4 159.11C508.52 172.97 500.225 184.94 489.515 195.02C478.805 205.1 466.205 212.975 451.715 218.645C437.435 224.315 421.79 227.15 404.78 227.15ZM404.465 191.24C415.595 191.24 425.885 189.35 435.335 185.57C444.785 181.79 452.975 176.435 459.905 169.505C466.835 162.365 472.19 154.175 475.97 144.935C479.96 135.485 481.955 125.09 481.955 113.75C481.955 102.41 479.96 92.12 475.97 82.88C472.19 73.43 466.835 65.24 459.905 58.31C452.975 51.17 444.785 45.71 435.335 41.93C425.885 38.15 415.595 36.26 404.465 36.26C393.335 36.26 383.045 38.15 373.595 41.93C364.355 45.71 356.165 51.17 349.025 58.31C342.095 65.24 336.635 73.43 332.645 82.88C328.865 92.12 326.975 102.41 326.975 113.75C326.975 124.88 328.865 135.17 332.645 144.62C336.635 154.07 342.095 162.365 349.025 169.505C355.955 176.435 364.145 181.79 373.595 185.57C383.045 189.35 393.335 191.24 404.465 191.24ZM566.626 224V3.49998H600.331L738.616 173.285H721.921V3.49998H762.556V224H728.851L590.566 54.215H607.261V224H566.626ZM866.37 224V38.15H793.29V3.49998H980.4V38.15H907.32V224H866.37ZM1077.33 227.15C1060.11 227.15 1043.63 224.735 1027.88 219.905C1012.13 214.865 999.634 208.46 990.394 200.69L1004.57 168.875C1013.39 175.805 1024.31 181.58 1037.33 186.2C1050.35 190.82 1063.68 193.13 1077.33 193.13C1088.88 193.13 1098.23 191.87 1105.37 189.35C1112.51 186.83 1117.76 183.47 1121.12 179.27C1124.48 174.86 1126.16 169.925 1126.16 164.465C1126.16 157.745 1123.74 152.39 1118.91 148.4C1114.08 144.2 1107.78 140.945 1100.01 138.635C1092.45 136.115 1083.95 133.805 1074.5 131.705C1065.26 129.605 1055.91 127.19 1046.46 124.46C1037.22 121.52 1028.72 117.845 1020.95 113.435C1013.39 108.815 1007.19 102.725 1002.36 95.165C997.534 87.605 995.119 77.945 995.119 66.185C995.119 54.215 998.269 43.295 1004.57 33.425C1011.08 23.345 1020.84 15.365 1033.86 9.48498C1047.09 3.39499 1063.79 0.349988 1083.95 0.349988C1097.18 0.349988 1110.3 2.02999 1123.32 5.39C1136.34 8.74999 1147.68 13.58 1157.34 19.88L1144.43 51.695C1134.56 45.815 1124.37 41.51 1113.87 38.78C1103.37 35.84 1093.29 34.37 1083.63 34.37C1072.29 34.37 1063.05 35.735 1055.91 38.465C1048.98 41.195 1043.84 44.765 1040.48 49.175C1037.33 53.585 1035.75 58.625 1035.75 64.295C1035.75 71.015 1038.06 76.475 1042.68 80.675C1047.51 84.665 1053.71 87.815 1061.27 90.125C1069.04 92.435 1077.65 94.745 1087.1 97.055C1096.55 99.155 1105.89 101.57 1115.13 104.3C1124.58 107.03 1133.09 110.6 1140.65 115.01C1148.42 119.42 1154.61 125.405 1159.23 132.965C1164.06 140.525 1166.48 150.08 1166.48 161.63C1166.48 173.39 1163.22 184.31 1156.71 194.39C1150.41 204.26 1140.65 212.24 1127.42 218.33C1114.19 224.21 1097.49 227.15 1077.33 227.15ZM1244.88 95.165H1354.5V128.87H1244.88V95.165ZM1248.03 189.665H1372.46V224H1207.08V3.49998H1368.05V37.835H1248.03V189.665ZM1418.11 224V3.49998H1508.83C1528.36 3.49998 1545.06 6.64999 1558.92 12.95C1572.99 19.25 1583.8 28.28 1591.36 40.04C1598.92 51.8 1602.7 65.765 1602.7 81.935C1602.7 98.105 1598.92 112.07 1591.36 123.83C1583.8 135.38 1572.99 144.305 1558.92 150.605C1545.06 156.695 1528.36 159.74 1508.83 159.74H1440.79L1459.06 141.155V224H1418.11ZM1562.38 224L1506.63 143.99H1550.41L1606.48 224H1562.38ZM1459.06 145.565L1440.79 126.035H1506.94C1525 126.035 1538.55 122.15 1547.57 114.38C1556.82 106.61 1561.44 95.795 1561.44 81.935C1561.44 67.865 1556.82 57.05 1547.57 49.49C1538.55 41.93 1525 38.15 1506.94 38.15H1440.79L1459.06 17.99V145.565ZM1648.52 224V3.49998H1739.24C1758.77 3.49998 1775.46 6.64999 1789.32 12.95C1803.39 19.25 1814.21 28.28 1821.77 40.04C1829.33 51.8 1833.11 65.765 1833.11 81.935C1833.11 98.105 1829.33 112.07 1821.77 123.83C1814.21 135.38 1803.39 144.305 1789.32 150.605C1775.46 156.695 1758.77 159.74 1739.24 159.74H1671.2L1689.47 141.155V224H1648.52ZM1792.79 224L1737.03 143.99H1780.82L1836.89 224H1792.79ZM1689.47 145.565L1671.2 126.035H1737.35C1755.41 126.035 1768.95 122.15 1777.98 114.38C1787.22 106.61 1791.84 95.795 1791.84 81.935C1791.84 67.865 1787.22 57.05 1777.98 49.49C1768.95 41.93 1755.41 38.15 1737.35 38.15H1671.2L1689.47 17.99V145.565ZM1847.74 224L1946.96 3.49998H1987.28L2086.82 224H2043.98L1958.62 25.235H1975L1889.95 224H1847.74ZM1893.41 172.97L1904.44 140.84H2023.51L2034.53 172.97H1893.41ZM2148.52 224V38.15H2075.44V3.49998H2262.55V38.15H2189.47V224H2148.52Z" fill="#FFDC84"/>
</svg>
