<svg width="1360" height="859" viewBox="0 0 1360 859" fill="none" xmlns="http://www.w3.org/2000/svg">
<path d="M232.007 543.625H71.5967V498.483H232.007V543.625ZM85.874 678H30.0244V372.297H85.874V678ZM274.419 678H218.569V372.297H274.419V678ZM536.24 678H374.78V633.068H536.24V678ZM390.737 678H334.888V372.297H390.737V678ZM515.244 542.575H374.78V498.483H515.244V542.575ZM535.4 417.438H374.78V372.297H535.4V417.438ZM778.955 678H617.495V633.068H778.955V678ZM633.452 678H577.603V372.297H633.452V678ZM757.959 542.575H617.495V498.483H757.959V542.575ZM778.115 417.438H617.495V372.297H778.115V417.438ZM858.95 541.525V501.003H925.718C942.655 501.003 955.602 497.434 964.561 490.295C973.659 483.016 978.208 472.728 978.208 459.431C978.208 444.593 973.869 433.885 965.19 427.307C956.652 420.728 943.354 417.438 925.298 417.438H876.167V678H820.317V372.297H925.298C959.312 372.297 985.907 379.016 1005.08 392.453C1024.4 405.751 1034.06 426.677 1034.06 455.231C1034.06 467.829 1031.05 479.377 1025.03 489.875C1019.15 500.373 1010.19 508.981 998.154 515.7C986.117 522.279 971.139 526.058 953.223 527.038L936.426 541.525H858.95ZM841.523 678L866.299 633.068H934.116C951.193 633.068 964.001 628.939 972.539 620.681C981.077 612.282 985.347 601.504 985.347 588.347C985.347 578.688 983.667 570.36 980.308 563.361C976.948 556.363 971.699 550.974 964.561 547.194C957.422 543.415 948.044 541.525 936.426 541.525H876.587V501.003H954.062L966.66 516.54C983.877 516.82 997.944 520.389 1008.86 527.248C1019.92 533.967 1028.04 542.785 1033.22 553.703C1038.54 564.481 1041.2 576.099 1041.2 588.557C1041.2 617.951 1031.75 640.207 1012.85 655.324C993.955 670.441 967.71 678 934.116 678H841.523ZM1338.92 532.917C1338.92 563.851 1333.53 590.516 1322.75 612.912C1312.12 635.168 1297.21 652.315 1278.03 664.353C1259 676.25 1236.81 682.199 1211.47 682.199C1186.42 682.199 1164.16 676.25 1144.71 664.353C1125.39 652.315 1110.27 635.168 1099.36 612.912C1088.44 590.516 1082.98 563.851 1082.98 532.917V517.59C1082.98 486.656 1088.37 460.061 1099.15 437.805C1110.06 415.409 1125.18 398.192 1144.5 386.154C1163.81 374.117 1186 368.098 1211.05 368.098C1236.39 368.098 1258.65 374.117 1277.82 386.154C1297 398.192 1311.98 415.409 1322.75 437.805C1333.53 460.061 1338.92 486.656 1338.92 517.59V532.917ZM1282.65 517.17C1282.65 494.774 1279.78 476.018 1274.04 460.9C1268.44 445.643 1260.33 434.095 1249.69 426.257C1239.05 418.418 1226.17 414.499 1211.05 414.499C1196.08 414.499 1183.2 418.418 1172.42 426.257C1161.78 434.095 1153.6 445.643 1147.86 460.9C1142.26 476.018 1139.46 494.774 1139.46 517.17V532.917C1139.46 555.173 1142.33 573.999 1148.07 589.396C1153.81 604.654 1162.06 616.271 1172.84 624.25C1183.62 632.089 1196.5 636.008 1211.47 636.008C1226.59 636.008 1239.47 632.089 1250.11 624.25C1260.75 616.271 1268.79 604.654 1274.25 589.396C1279.85 573.999 1282.65 555.173 1282.65 532.917V517.17Z" fill="#FFDC84"/>
<path d="M69.9092 325H29.6455V104.609H69.9092V325ZM158.61 232.515H59.7676V200.122H158.61V232.515ZM170.871 137.153H59.7676V104.609H170.871V137.153ZM242.922 325H202.658V104.609H242.922V325ZM381.726 325H341.613V104.609H381.726V325ZM450.144 137.153H273.801V104.609H450.144V137.153ZM623.913 228.125H508.269V195.581H623.913V228.125ZM518.562 325H478.298V104.609H518.562V325ZM654.489 325H614.226V104.609H654.489V325ZM722.604 325H680.07L762.868 104.609H789.66L786.936 137.456L722.604 325ZM775.734 137.456L772.707 104.609H799.65L882.751 325H840.217L775.734 137.456ZM837.795 275.654H718.215V242.959H837.795V275.654ZM934.216 226.611V197.397H982.351C994.561 197.397 1003.9 194.824 1010.35 189.678C1016.91 184.43 1020.19 177.013 1020.19 167.427C1020.19 156.73 1017.06 149.01 1010.81 144.268C1004.65 139.525 995.065 137.153 982.048 137.153H946.628V325H906.364V104.609H982.048C1006.57 104.609 1025.74 109.453 1039.57 119.141C1053.49 128.727 1060.46 143.813 1060.46 164.399C1060.46 173.481 1058.29 181.807 1053.95 189.375C1049.71 196.943 1043.25 203.149 1034.57 207.993C1025.89 212.736 1015.1 215.461 1002.18 216.167L990.07 226.611H934.216ZM921.652 325L939.514 292.607H988.405C1000.72 292.607 1009.95 289.631 1016.11 283.677C1022.26 277.622 1025.34 269.852 1025.34 260.366C1025.34 253.403 1024.13 247.399 1021.71 242.354C1019.28 237.308 1015.5 233.423 1010.35 230.698C1005.21 227.974 998.446 226.611 990.07 226.611H946.931V197.397H1002.79L1011.87 208.599C1024.28 208.8 1034.42 211.374 1042.29 216.318C1050.26 221.162 1056.12 227.52 1059.85 235.391C1063.69 243.161 1065.6 251.536 1065.6 260.518C1065.6 281.709 1058.79 297.754 1045.17 308.652C1031.54 319.551 1012.62 325 988.405 325H921.652ZM1145.68 325H1105.41V104.609H1145.68V325ZM1284.48 325H1244.37V104.609H1284.48V325ZM1352.9 137.153H1176.55V104.609H1352.9V137.153Z" fill="#FFDC84"/>
</svg>
