<svg width="1353" height="449" viewBox="0 0 1353 449" fill="none" xmlns="http://www.w3.org/2000/svg">
<path d="M61.0012 288.152C67.7998 288.152 73.6443 288.927 78.5346 290.478C83.4845 292.028 87.3609 293.668 90.1639 295.398C93.0265 297.127 94.7261 298.26 95.2629 298.797L87.3907 311.41C86.4962 310.635 84.9158 309.532 82.6496 308.101C80.3833 306.61 77.5506 305.298 74.1512 304.164C70.7519 302.972 66.8755 302.375 62.5219 302.375C55.7829 302.375 50.4454 303.747 46.5093 306.49C42.6329 309.174 40.6946 312.991 40.6946 317.941C40.6946 321.28 41.7085 324.232 43.7361 326.797C45.8235 329.302 48.7457 331.598 52.5028 333.685C56.26 335.772 60.6434 337.919 65.6529 340.126C69.7679 341.855 73.7934 343.823 77.7295 346.03C81.7252 348.237 85.3332 350.831 88.5537 353.813C91.8337 356.794 94.428 360.253 96.3364 364.19C98.3044 368.126 99.2884 372.658 99.2884 377.787C99.2884 382.856 98.2447 387.418 96.1574 391.474C94.1298 395.529 91.2374 398.988 87.4802 401.851C83.7827 404.654 79.459 406.8 74.5091 408.291C69.5591 409.782 64.2216 410.528 58.4964 410.528C51.2803 410.528 44.75 409.633 38.9055 407.844C33.1207 406.055 28.4391 404.176 24.8609 402.208C21.3423 400.24 19.3146 399.018 18.7779 398.541L27.0973 385.391C27.813 385.987 29.125 386.882 31.0334 388.074C32.9418 389.207 35.2974 390.4 38.1004 391.653C40.9034 392.905 44.0641 393.978 47.5828 394.873C51.1014 395.708 54.8585 396.125 58.8542 396.125C66.8456 396.125 72.8988 394.336 77.0138 390.758C81.1288 387.18 83.1863 382.588 83.1863 376.982C83.1863 372.688 81.8743 368.99 79.2502 365.889C76.6262 362.788 73.1374 360.015 68.7839 357.57C64.4303 355.125 59.6295 352.769 54.3814 350.503C49.0141 348.058 44.094 345.374 39.6212 342.452C35.1484 339.529 31.5403 336.041 28.797 331.985C26.1133 327.87 24.7714 322.92 24.7714 317.136C24.7714 311.41 26.3817 306.371 29.6021 302.018C32.8821 297.664 37.2655 294.265 42.7521 291.82C48.2984 289.374 54.3814 288.152 61.0012 288.152ZM119.652 290.299H153.109C160.504 290.299 167.153 291.521 173.058 293.966C179.021 296.352 183.762 300.109 187.281 305.238C190.8 310.367 192.559 317.046 192.559 325.276C192.559 333.446 190.8 340.215 187.281 345.583C183.762 350.95 179.021 354.976 173.058 357.659C167.153 360.283 160.504 361.595 153.109 361.595H134.949V408.381H119.652V290.299ZM134.949 348.803H148.904C153.974 348.803 158.566 348.058 162.681 346.567C166.855 345.076 170.165 342.631 172.61 339.231C175.115 335.832 176.367 331.27 176.367 325.544C176.367 319.76 175.115 315.257 172.61 312.037C170.165 308.757 166.855 306.461 162.681 305.148C158.566 303.777 153.974 303.091 148.904 303.091H134.949V348.803ZM233.863 290.299H249.786L293.44 408.381H277.07L266.872 379.934H216.776L206.4 408.381H190.029L233.863 290.299ZM221.697 366.158H262.041L242.003 309.085H241.735L221.697 366.158ZM306.056 290.299H347.296C353.677 290.299 359.462 291.641 364.65 294.324C369.898 296.948 374.073 300.825 377.174 305.954C380.335 311.023 381.915 317.225 381.915 324.56C381.915 331.836 380.454 337.86 377.532 342.631C374.669 347.402 371.21 351.01 367.155 353.455C363.1 355.84 359.342 357.152 355.884 357.391L385.136 408.381H367.781L340.408 358.464H321.353V408.381H306.056V290.299ZM321.353 347.103H341.928C348.966 347.103 354.78 345.344 359.372 341.825C363.964 338.307 366.26 332.671 366.26 324.918C366.26 317.165 363.964 311.589 359.372 308.19C354.84 304.791 349.055 303.091 342.018 303.091H321.353V347.103ZM426.399 304.164H394.552V290.299H473.632V304.164H441.785V408.381H426.399V304.164ZM512.365 290.299H528.288L571.942 408.381H555.572L545.374 379.934H495.279L484.902 408.381H468.531L512.365 290.299ZM500.199 366.158H540.543L520.505 309.085H520.237L500.199 366.158ZM598.961 304.791L599.945 304.97V408.381H584.648V290.299H606.207L667.484 393.621L666.5 393.8V290.299H681.797V408.381H660.06L598.961 304.791ZM750.367 290.299H765.664V394.515H812.092V408.381H750.367V290.299ZM832.4 290.299H902.175V304.164H847.518V342.452H901.102V355.96H847.518V394.515H902.175V408.381H832.4V290.299ZM958.248 290.299H974.171L1017.83 408.381H1001.45L991.257 379.934H941.161L930.785 408.381H914.414L958.248 290.299ZM946.082 366.158H986.426L966.388 309.085H966.12L946.082 366.158ZM1079.25 344.241H1138.83V350.682C1138.83 358.912 1137.4 366.664 1134.54 373.94C1131.68 381.156 1127.62 387.508 1122.37 392.994C1117.18 398.481 1111.07 402.775 1104.03 405.876C1097 408.977 1089.27 410.528 1080.86 410.528C1072.28 410.528 1064.4 408.947 1057.25 405.787C1050.09 402.566 1043.89 398.153 1038.64 392.547C1033.39 386.882 1029.34 380.351 1026.47 372.956C1023.61 365.561 1022.18 357.659 1022.18 349.25C1022.18 340.901 1023.61 333.029 1026.47 325.634C1029.34 318.239 1033.39 311.738 1038.64 306.133C1043.89 300.527 1050.09 296.143 1057.25 292.982C1064.4 289.762 1072.28 288.152 1080.86 288.152C1086.71 288.152 1092.05 288.808 1096.88 290.12C1101.77 291.372 1106.15 293.161 1110.03 295.487C1113.96 297.753 1117.45 300.348 1120.49 303.27C1123.53 306.132 1126.16 309.174 1128.37 312.394L1114.5 319.819C1110.92 314.869 1106.33 310.784 1100.72 307.564C1095.12 304.343 1088.5 302.733 1080.86 302.733C1074.66 302.733 1068.94 303.956 1063.69 306.401C1058.44 308.846 1053.88 312.216 1050 316.509C1046.18 320.803 1043.23 325.753 1041.15 331.359C1039.06 336.965 1038.01 342.929 1038.01 349.25C1038.01 355.572 1039.06 361.565 1041.15 367.231C1043.23 372.837 1046.18 377.817 1050 382.17C1053.88 386.464 1058.44 389.834 1063.69 392.279C1068.94 394.724 1074.66 395.946 1080.86 395.946C1086.77 395.946 1092.17 394.933 1097.06 392.905C1101.95 390.877 1106.21 388.074 1109.85 384.496C1113.49 380.918 1116.35 376.743 1118.44 371.972C1120.52 367.201 1121.69 362.072 1121.92 356.586H1079.25V344.241ZM1230.39 290.299H1245.69V363.653C1245.69 373.374 1243.75 381.753 1239.87 388.79C1236 395.768 1230.66 401.135 1223.86 404.892C1217.12 408.649 1209.4 410.528 1200.69 410.528C1191.98 410.528 1184.2 408.649 1177.34 404.892C1170.54 401.135 1165.21 395.768 1161.33 388.79C1157.45 381.753 1155.52 373.374 1155.52 363.653V290.299H1170.72V362.848C1170.72 369.706 1172.03 375.64 1174.66 380.649C1177.28 385.659 1180.86 389.535 1185.39 392.279C1189.93 394.962 1195.02 396.304 1200.69 396.304C1206.36 396.304 1211.43 394.962 1215.9 392.279C1220.37 389.535 1223.89 385.659 1226.45 380.649C1229.08 375.64 1230.39 369.706 1230.39 362.848V290.299ZM1267.8 290.299H1337.58V304.164H1282.92V342.452H1336.5V355.96H1282.92V394.515H1337.58V408.381H1267.8V290.299Z" fill="#FFDC84"/>
<path d="M20.359 14.6922H147.695V43.3799H51.8229V122.225H141.217V150.727H51.8229V259H20.359V14.6922ZM191.588 14.6922H223.422V259H191.588V14.6922ZM322.843 43.3799H256.954V14.6922H420.566V43.3799H354.677V259H322.843V43.3799ZM603.849 150.727H486.692V259H455.414V14.6922H486.692V122.225H603.849V14.6922H635.128V259H603.849V150.727ZM758.806 14.6922H791.75L882.07 259H848.2L827.101 200.144H723.455L701.986 259H668.116L758.806 14.6922ZM733.635 171.641H817.106L775.648 53.5594H775.093L733.635 171.641ZM908.172 14.6922H976.097C989.423 14.6922 1001.95 16.4814 1013.67 20.0596C1025.39 23.6378 1034.89 29.6838 1042.17 38.1976C1049.45 46.7114 1053.09 58.5566 1053.09 73.7333C1053.09 83.9745 1051.06 93.2902 1046.98 101.681C1043.04 109.948 1038.1 116.672 1032.18 121.854C1026.25 127.037 1020.39 130.121 1014.59 131.109C1019.28 131.479 1024.47 132.959 1030.14 135.551C1035.94 138.142 1041.43 141.843 1046.61 146.655C1051.92 151.468 1056.24 157.514 1059.57 164.793C1063.02 171.95 1064.75 180.464 1064.75 190.335C1064.75 203.661 1062.04 215.506 1056.61 225.87C1051.18 236.235 1042.91 244.379 1031.81 250.301C1020.83 256.1 1006.88 259 989.979 259H908.172V14.6922ZM939.636 232.533H986.832C998.554 232.533 1007.62 230.497 1014.04 226.426C1020.58 222.23 1025.14 216.801 1027.74 210.138C1030.45 203.476 1031.81 196.381 1031.81 188.854C1031.81 176.392 1027.74 166.336 1019.59 158.686C1011.45 151.036 999.664 147.211 984.241 147.211H939.636V232.533ZM939.636 121.299H980.539C989.917 121.299 997.629 119.263 1003.67 115.192C1009.72 110.996 1014.22 105.691 1017.19 99.2745C1020.15 92.735 1021.63 86.0104 1021.63 79.1006C1021.63 64.9111 1017.43 55.04 1009.04 49.4876C1000.77 43.9351 989.67 41.1589 975.727 41.1589H939.636V121.299ZM1107.96 14.6922H1139.79V259H1107.96V14.6922ZM1239.21 43.3799H1173.33V14.6922H1336.94V43.3799H1271.05V259H1239.21V43.3799Z" fill="#FFDC84"/>
</svg>
