<svg width="1967" height="228" viewBox="0 0 1967 228" fill="none" xmlns="http://www.w3.org/2000/svg">
<path d="M0.610001 224V3.49998H103.93C130.39 3.49998 150.55 8.74999 164.41 19.25C178.27 29.54 185.2 43.4 185.2 60.83C185.2 72.59 182.47 82.67 177.01 91.07C171.55 99.26 164.2 105.665 154.96 110.285C145.93 114.695 136.06 116.9 125.35 116.9L131.02 105.56C143.41 105.56 154.54 107.87 164.41 112.49C174.28 116.9 182.05 123.41 187.72 132.02C193.6 140.63 196.54 151.34 196.54 164.15C196.54 183.05 189.295 197.75 174.805 208.25C160.315 218.75 138.79 224 110.23 224H0.610001ZM41.56 191.87H107.71C123.04 191.87 134.8 189.35 142.99 184.31C151.18 179.27 155.275 171.185 155.275 160.055C155.275 149.135 151.18 141.155 142.99 136.115C134.8 130.865 123.04 128.24 107.71 128.24H38.41V96.425H99.52C113.8 96.425 124.72 93.905 132.28 88.865C140.05 83.825 143.935 76.265 143.935 66.185C143.935 55.895 140.05 48.23 132.28 43.19C124.72 38.15 113.8 35.63 99.52 35.63H41.56V191.87ZM240.244 224V3.49998H281.194V224H240.244ZM340.835 224V3.49998H381.785V189.35H497.075V224H340.835ZM529.404 224V3.49998H632.724C659.184 3.49998 679.344 8.74999 693.204 19.25C707.064 29.54 713.994 43.4 713.994 60.83C713.994 72.59 711.264 82.67 705.804 91.07C700.344 99.26 692.994 105.665 683.754 110.285C674.724 114.695 664.854 116.9 654.144 116.9L659.814 105.56C672.204 105.56 683.334 107.87 693.204 112.49C703.074 116.9 710.844 123.41 716.514 132.02C722.394 140.63 725.334 151.34 725.334 164.15C725.334 183.05 718.089 197.75 703.599 208.25C689.109 218.75 667.584 224 639.024 224H529.404ZM570.354 191.87H636.504C651.834 191.87 663.594 189.35 671.784 184.31C679.974 179.27 684.069 171.185 684.069 160.055C684.069 149.135 679.974 141.155 671.784 136.115C663.594 130.865 651.834 128.24 636.504 128.24H567.204V96.425H628.314C642.594 96.425 653.514 93.905 661.074 88.865C668.844 83.825 672.729 76.265 672.729 66.185C672.729 55.895 668.844 48.23 661.074 43.19C653.514 38.15 642.594 35.63 628.314 35.63H570.354V191.87ZM737.853 224L837.078 3.49998H877.398L976.938 224H934.098L848.733 25.235H865.113L780.063 224H737.853ZM783.528 172.97L794.553 140.84H913.623L924.648 172.97H783.528ZM1105.22 227.15C1088 227.15 1072.15 224.315 1057.66 218.645C1043.17 212.975 1030.57 205.1 1019.86 195.02C1009.15 184.73 1000.85 172.76 994.974 159.11C989.094 145.25 986.154 130.13 986.154 113.75C986.154 97.37 989.094 82.355 994.974 68.705C1000.85 54.845 1009.15 42.875 1019.86 32.795C1030.57 22.505 1043.17 14.525 1057.66 8.85499C1072.15 3.18499 1087.9 0.349988 1104.91 0.349988C1122.13 0.349988 1137.88 3.18499 1152.16 8.85499C1166.65 14.525 1179.25 22.505 1189.96 32.795C1200.67 42.875 1208.96 54.845 1214.84 68.705C1220.72 82.355 1223.66 97.37 1223.66 113.75C1223.66 130.13 1220.72 145.25 1214.84 159.11C1208.96 172.97 1200.67 184.94 1189.96 195.02C1179.25 205.1 1166.65 212.975 1152.16 218.645C1137.88 224.315 1122.23 227.15 1105.22 227.15ZM1104.91 191.24C1116.04 191.24 1126.33 189.35 1135.78 185.57C1145.23 181.79 1153.42 176.435 1160.35 169.505C1167.28 162.365 1172.63 154.175 1176.41 144.935C1180.4 135.485 1182.4 125.09 1182.4 113.75C1182.4 102.41 1180.4 92.12 1176.41 82.88C1172.63 73.43 1167.28 65.24 1160.35 58.31C1153.42 51.17 1145.23 45.71 1135.78 41.93C1126.33 38.15 1116.04 36.26 1104.91 36.26C1093.78 36.26 1083.49 38.15 1074.04 41.93C1064.8 45.71 1056.61 51.17 1049.47 58.31C1042.54 65.24 1037.08 73.43 1033.09 82.88C1029.31 92.12 1027.42 102.41 1027.42 113.75C1027.42 124.88 1029.31 135.17 1033.09 144.62C1037.08 154.07 1042.54 162.365 1049.47 169.505C1056.4 176.435 1064.59 181.79 1074.04 185.57C1083.49 189.35 1093.78 191.24 1104.91 191.24ZM1422.48 227.15C1405.26 227.15 1388.78 224.735 1373.03 219.905C1357.28 214.865 1344.78 208.46 1335.54 200.69L1349.72 168.875C1358.54 175.805 1369.46 181.58 1382.48 186.2C1395.5 190.82 1408.83 193.13 1422.48 193.13C1434.03 193.13 1443.38 191.87 1450.52 189.35C1457.66 186.83 1462.91 183.47 1466.27 179.27C1469.63 174.86 1471.31 169.925 1471.31 164.465C1471.31 157.745 1468.89 152.39 1464.06 148.4C1459.23 144.2 1452.93 140.945 1445.16 138.635C1437.6 136.115 1429.1 133.805 1419.65 131.705C1410.41 129.605 1401.06 127.19 1391.61 124.46C1382.37 121.52 1373.87 117.845 1366.1 113.435C1358.54 108.815 1352.34 102.725 1347.51 95.165C1342.68 87.605 1340.27 77.945 1340.27 66.185C1340.27 54.215 1343.42 43.295 1349.72 33.425C1356.23 23.345 1365.99 15.365 1379.01 9.48498C1392.24 3.39499 1408.94 0.349988 1429.1 0.349988C1442.33 0.349988 1455.45 2.02999 1468.47 5.39C1481.49 8.74999 1492.83 13.58 1502.49 19.88L1489.58 51.695C1479.71 45.815 1469.52 41.51 1459.02 38.78C1448.52 35.84 1438.44 34.37 1428.78 34.37C1417.44 34.37 1408.2 35.735 1401.06 38.465C1394.13 41.195 1388.99 44.765 1385.63 49.175C1382.48 53.585 1380.9 58.625 1380.9 64.295C1380.9 71.015 1383.21 76.475 1387.83 80.675C1392.66 84.665 1398.86 87.815 1406.42 90.125C1414.19 92.435 1422.8 94.745 1432.25 97.055C1441.7 99.155 1451.04 101.57 1460.28 104.3C1469.73 107.03 1478.24 110.6 1485.8 115.01C1493.57 119.42 1499.76 125.405 1504.38 132.965C1509.21 140.525 1511.63 150.08 1511.63 161.63C1511.63 173.39 1508.37 184.31 1501.86 194.39C1495.56 204.26 1485.8 212.24 1472.57 218.33C1459.34 224.21 1442.64 227.15 1422.48 227.15ZM1588.77 172.025L1586.57 123.515L1702.17 3.49998H1748.16L1652.09 105.56L1629.41 130.445L1588.77 172.025ZM1552.23 224V3.49998H1593.18V224H1552.23ZM1705.95 224L1621.53 123.515L1648.62 93.59L1753.83 224H1705.95ZM1781.71 224V3.49998H1872.43C1891.96 3.49998 1908.66 6.64999 1922.52 12.95C1936.59 19.25 1947.4 28.28 1954.96 40.04C1962.52 51.8 1966.3 65.765 1966.3 81.935C1966.3 98.105 1962.52 112.07 1954.96 123.83C1947.4 135.59 1936.59 144.62 1922.52 150.92C1908.66 157.22 1891.96 160.37 1872.43 160.37H1804.39L1822.66 141.155V224H1781.71ZM1822.66 145.565L1804.39 125.72H1870.54C1888.6 125.72 1902.15 121.94 1911.18 114.38C1920.42 106.61 1925.04 95.795 1925.04 81.935C1925.04 67.865 1920.42 57.05 1911.18 49.49C1902.15 41.93 1888.6 38.15 1870.54 38.15H1804.39L1822.66 17.99V145.565Z" fill="#FFDC84"/>
</svg>
