<svg width="1392" height="1459" viewBox="0 0 1392 1459" fill="none" xmlns="http://www.w3.org/2000/svg">
<path d="M506.4 1269.2C467.467 1269.2 428.533 1264.4 389.6 1254.8C351.2 1245.2 317.6 1231.6 288.8 1214L346.4 1094.8C368.8 1109.73 393.6 1121.2 420.8 1129.2C448.533 1137.2 475.467 1141.2 501.6 1141.2C528.8 1141.2 550.4 1136.13 566.4 1126C582.4 1115.87 590.4 1101.47 590.4 1082.8C590.4 1066.27 583.733 1053.2 570.4 1043.6C557.067 1033.47 535.2 1028.4 504.8 1028.4H438.4V928.4L588.8 766L604 820.4H317.6V698H722.4V797.2L572 959.6L494.4 915.6H537.6C607.467 915.6 660.267 931.333 696 962.8C732.267 993.733 750.4 1033.73 750.4 1082.8C750.4 1114.8 741.6 1144.93 724 1173.2C706.933 1201.47 680.533 1224.67 644.8 1242.8C609.067 1260.4 562.933 1269.2 506.4 1269.2ZM882.831 1258V754.8L950.831 820.4H778.831V698H1041.23V1258H882.831Z" fill="white"/>
<path fill-rule="evenodd" clip-rule="evenodd" d="M1134 124H772V182.5C772 224.75 737.75 259 695.5 259C653.25 259 619 224.75 619 182.5V124H275V182.5C275 224.75 240.75 259 198.5 259C156.25 259 122 224.75 122 182.5V124H108C48.3535 124 0 172.354 0 232V1344C0 1403.65 48.3535 1452 108 1452H1284C1343.65 1452 1392 1403.65 1392 1344V232C1392 173.356 1345.26 125.63 1287 124.041V182.5C1287 224.75 1252.75 259 1210.5 259C1168.25 259 1134 224.75 1134 182.5V124ZM41 1342V541H1351V1342C1351 1381.21 1319.21 1413 1280 1413H112C72.7881 1413 41 1381.21 41 1342Z" fill="white"/>
<rect x="142" y="20" width="113" height="226" rx="56.5" stroke="white" stroke-width="40"/>
<rect x="639" y="20" width="113" height="226" rx="56.5" stroke="white" stroke-width="40"/>
<rect x="1154" y="20" width="113" height="226" rx="56.5" stroke="white" stroke-width="40"/>
</svg>
