<svg width="746" height="1289" viewBox="0 0 746 1289" fill="none" xmlns="http://www.w3.org/2000/svg">
<path d="M714 116.5C714 123.572 709.567 133.713 693.556 145.963C677.842 157.986 653.845 169.674 622.401 179.85C559.734 200.129 471.909 213 374 213C276.091 213 188.266 200.129 125.599 179.85C94.1546 169.674 70.1575 157.986 54.4436 145.963C38.4333 133.713 34 123.572 34 116.5C34 109.428 38.4333 99.2865 54.4436 87.0371C70.1575 75.0143 94.1546 63.3264 125.599 53.1505C188.266 32.8709 276.091 20 374 20C471.909 20 559.734 32.8709 622.401 53.1505C653.845 63.3264 677.842 75.0143 693.556 87.0371C709.567 99.2865 714 109.428 714 116.5Z" stroke="white" stroke-width="40"/>
<path d="M41 100C16.4692 132.38 12.6386 210.011 34.2313 318.25C35.0545 322.377 36.5293 326.335 38.6654 329.96C119.301 466.815 298.512 609.394 299.499 639C300.499 669 72.4987 887.5 52.9987 940.5C33.4987 993.5 17.4987 1114.5 42.9987 1179.5C68.4987 1244.5 274.999 1268.5 359.499 1268.5C437.713 1268.5 598.603 1270.21 694.669 1198.3C709.667 1187.08 718.214 1169.54 720.321 1150.92C728.15 1081.75 728.702 991.025 705.999 943C679.999 888 453.499 674.5 452.999 647C448.999 594.5 695.999 395.5 711.499 319.5C713.999 254.833 717.499 123.3 711.499 114.5" stroke="white" stroke-width="40"/>
<path d="M150.5 1068.5C117.3 1086.5 100.333 1120.67 96 1135.5C97.5 1138.67 114 1155 213 1175.5C312 1196 441.5 1193.5 534.5 1174.5C577.667 1165.33 663 1143.7 659 1130.5C654 1114 649 1104.5 621.5 1079C594 1053.5 442.5 980 426 970C419.984 966.354 415.563 963.306 412.374 960.905C407.167 956.985 402.488 952.322 398.903 946.878C393.05 937.989 385.969 923.53 376.5 903.5C364.9 944.3 334 967.526 325 972.5C280.667 997 183.7 1050.5 150.5 1068.5Z" fill="white"/>
<path d="M376 404.5C278 407.3 177.833 358.667 140 334L170.5 374L203.5 412L237.5 448.5L299.5 516L329.5 550C330 551 334.2 556.5 347 570.5C359.8 584.5 373 687 375.5 687C378 687 376 679.6 384 628C392 576.4 411 560 425 542L472.5 488L493 465.5L517.5 438L542.5 410L560 390L583.5 362L594 347.5L604 333C568.833 355.667 474 401.7 376 404.5Z" fill="white"/>
</svg>
